REM DIRINDEX 1\2,1\3,1\4,1\5
REM DIRNAME "folder01","folder02","folder03","folder04","folder05"
TITLE ""
FILE "P1Q_t_1388-1397.mp3" MP3
  TRACK 01 AUDIO
    TITLE "0:"
    INDEX 01 00:00:00
  TRACK 02 AUDIO
    TITLE "3:cjc173_5136"
    INDEX 01 00:00:08
  TRACK 03 AUDIO
    TITLE "0:"
    INDEX 01 00:01:27
  TRACK 04 AUDIO
    TITLE "4:cjc173_5137"
    INDEX 01 00:01:49
  TRACK 05 AUDIO
    TITLE "0:"
    INDEX 01 00:03:03
  TRACK 06 AUDIO
    TITLE "5:cjc173_5138"
    INDEX 01 00:03:22
  TRACK 07 AUDIO
    TITLE "0:"
    INDEX 01 00:07:46
  TRACK 08 AUDIO
    TITLE "3:cjc173_5139"
    INDEX 01 00:08:14
  TRACK 09 AUDIO
    TITLE "0:"
    INDEX 01 00:09:19
  TRACK 10 AUDIO
    TITLE "4:cjc173_5140"
    INDEX 01 00:09:39
  TRACK 11 AUDIO
    TITLE "0:"
    INDEX 01 00:12:04
  TRACK 12 AUDIO
    TITLE "5:cjc173_5141"
    INDEX 01 00:12:23
  TRACK 13 AUDIO
    TITLE "0:"
    INDEX 01 00:18:20
  TRACK 14 AUDIO
    TITLE "3:cjc173_5142"
    INDEX 01 00:18:63
  TRACK 15 AUDIO
    TITLE "0:"
    INDEX 01 00:19:72
  TRACK 16 AUDIO
    TITLE "4:cjc173_5143"
    INDEX 01 00:20:21
  TRACK 17 AUDIO
    TITLE "0:"
    INDEX 01 00:23:07
  TRACK 18 AUDIO
    TITLE "5:cjc173_5144"
    INDEX 01 00:23:29
  TRACK 19 AUDIO
    TITLE "0:"
    INDEX 01 00:27:52
  TRACK 20 AUDIO
    TITLE "3:cjc173_5145"
    INDEX 01 00:28:22
  TRACK 21 AUDIO
    TITLE "0:"
    INDEX 01 00:29:59
  TRACK 22 AUDIO
    TITLE "4:cjc173_5146"
    INDEX 01 00:30:04
  TRACK 23 AUDIO
    TITLE "0:"
    INDEX 01 00:31:62
  TRACK 24 AUDIO
    TITLE "5:cjc173_5147"
    INDEX 01 00:32:06
  TRACK 25 AUDIO
    TITLE "0:"
    INDEX 01 00:37:43
  TRACK 26 AUDIO
    TITLE "3:cjc173_5148"
    INDEX 01 00:38:13
  TRACK 27 AUDIO
    TITLE "0:"
    INDEX 01 00:39:24
  TRACK 28 AUDIO
    TITLE "4:cjc173_5149"
    INDEX 01 00:39:46
  TRACK 29 AUDIO
    TITLE "0:"
    INDEX 01 00:43:20
  TRACK 30 AUDIO
    TITLE "5:cjc173_5150"
    INDEX 01 00:43:40
  TRACK 31 AUDIO
    TITLE "0:"
    INDEX 01 00:46:73
  TRACK 32 AUDIO
    TITLE "3:cjc173_5151"
    INDEX 01 00:47:47
  TRACK 33 AUDIO
    TITLE "0:"
    INDEX 01 00:48:68
  TRACK 34 AUDIO
    TITLE "4:cjc173_5152"
    INDEX 01 00:49:13
  TRACK 35 AUDIO
    TITLE "0:"
    INDEX 01 00:51:55
  TRACK 36 AUDIO
    TITLE "5:cjc173_5153"
    INDEX 01 00:51:74
  TRACK 37 AUDIO
    TITLE "0:"
    INDEX 01 00:56:56
  TRACK 38 AUDIO
    TITLE "3:cjc173_5154"
    INDEX 01 00:57:26
  TRACK 39 AUDIO
    TITLE "0:"
    INDEX 01 00:58:55
  TRACK 40 AUDIO
    TITLE "4:cjc173_5155"
    INDEX 01 00:59:01
  TRACK 41 AUDIO
    TITLE "0:"
    INDEX 01 01:03:05
  TRACK 42 AUDIO
    TITLE "5:cjc173_5156"
    INDEX 01 01:03:25
  TRACK 43 AUDIO
    TITLE "0:"
    INDEX 01 01:08:22
  TRACK 44 AUDIO
    TITLE "3:cjc173_5157"
    INDEX 01 01:08:67
  TRACK 45 AUDIO
    TITLE "0:"
    INDEX 01 01:10:13
  TRACK 46 AUDIO
    TITLE "4:cjc173_5158"
    INDEX 01 01:10:32
  TRACK 47 AUDIO
    TITLE "0:"
    INDEX 01 01:11:61
  TRACK 48 AUDIO
    TITLE "5:cjc173_5159"
    INDEX 01 01:12:06
  TRACK 49 AUDIO
    TITLE "0:"
    INDEX 01 01:16:47
  TRACK 50 AUDIO
    TITLE "3:cjc173_5160"
    INDEX 01 01:17:17
  TRACK 51 AUDIO
    TITLE "0:"
    INDEX 01 01:18:30
  TRACK 52 AUDIO
    TITLE "4:cjc173_5161"
    INDEX 01 01:18:50
  TRACK 53 AUDIO
    TITLE "0:"
    INDEX 01 01:20:09
  TRACK 54 AUDIO
    TITLE "5:cjc173_5162"
    INDEX 01 01:20:31
  TRACK 55 AUDIO
    TITLE "0:"
    INDEX 01 01:23:63
  TRACK 56 AUDIO
    TITLE "3:cjc173_5163"
    INDEX 01 01:24:37
  TRACK 57 AUDIO
    TITLE "0:"
    INDEX 01 01:25:54
  TRACK 58 AUDIO
    TITLE "4:cjc173_5164"
    INDEX 01 01:25:73
  TRACK 59 AUDIO
    TITLE "0:"
    INDEX 01 01:28:40
  TRACK 60 AUDIO
    TITLE "5:cjc173_5165"
    INDEX 01 01:28:60
  TRACK 61 AUDIO
    TITLE "0:"
    INDEX 01 01:33:67
